<?xml version="1.0" encoding="iso-8859-1"?>
<!DOCTYPE svg PUBLIC "-//W3C//DTD SVG 1.1//EN" "http://www.w3.org/Graphics/SVG/1.1/DTD/svg11.dtd">

<svg id="qa_10N1vW" viewBox="0 0 350.00000000000006 239.1564409711373" height="239.1564409711373" width="350.00000000000006" style="width: 350px; height: 239.156px; position: absolute; top: 50%; left: 50%; transform: translate(-50%, -50%) scale(0.598286); z-index: 0; cursor: pointer; overflow: visible;">
<defs id="SvgjsDefs1090"></defs>
<g id="SvgjsG1091" featurekey="e7LhAk-0" transform="matrix(2.174520700991317,0,0,2.174520700991317,103.240812849329,-0.8850291590400773)" fill="#ffffff">
<g xmlns="http://www.w3.org/2000/svg">
<path d="M65.191,46.533c0-7.75-4.657-14.422-11.313-17.398v-7.078c0-0.353-0.246-0.658-0.591-0.733l-5.373-1.167   c-0.332-1.027-0.744-2.021-1.229-2.963l2.974-4.631c0.19-0.297,0.148-0.686-0.101-0.936l-6.9-6.9   c-0.249-0.249-0.638-0.291-0.936-0.101L37.091,7.6c-0.957-0.489-1.95-0.901-2.962-1.229l-1.167-5.373   c-0.075-0.345-0.38-0.591-0.733-0.591h-9.77c-0.353,0-0.658,0.246-0.733,0.591l-1.168,5.377c-1,0.331-1.989,0.742-2.949,1.227   l-4.645-2.976c-0.299-0.191-0.687-0.147-0.935,0.102l-6.89,6.9c-0.249,0.249-0.291,0.638-0.101,0.935l2.974,4.642   c-0.487,0.946-0.899,1.937-1.229,2.954L1.4,21.324c-0.345,0.075-0.591,0.38-0.591,0.733v9.76c0,0.353,0.246,0.657,0.59,0.733   l5.387,1.177c0.335,1.015,0.747,2.004,1.227,2.951l-2.975,4.644c-0.19,0.297-0.148,0.686,0.101,0.935l6.89,6.89   c0.249,0.25,0.638,0.291,0.935,0.101l4.645-2.977c0.959,0.485,1.948,0.897,2.949,1.228l1.168,5.376   c0.075,0.345,0.38,0.591,0.733,0.591h5.935c2.781,7.088,9.674,12.127,17.736,12.127C56.64,65.594,65.191,57.043,65.191,46.533z    M27.855,51.966h-4.792l-1.132-5.209c-0.058-0.265-0.253-0.478-0.513-0.558c-1.19-0.366-2.368-0.855-3.499-1.456   c-0.239-0.126-0.527-0.115-0.756,0.031l-4.501,2.885l-6.037-6.037l2.884-4.502c0.147-0.229,0.158-0.519,0.03-0.759   c-0.593-1.108-1.082-2.284-1.455-3.496c-0.08-0.259-0.292-0.455-0.557-0.513l-5.22-1.141v-8.551l5.219-1.132   c0.267-0.058,0.481-0.256,0.559-0.517c0.363-1.211,0.851-2.384,1.451-3.487c0.131-0.24,0.121-0.533-0.027-0.763l-2.884-4.503   l6.037-6.045l4.501,2.884c0.229,0.148,0.518,0.159,0.756,0.031c1.131-0.6,2.309-1.09,3.499-1.455   c0.259-0.08,0.455-0.293,0.513-0.558l1.132-5.21h8.561l1.131,5.21c0.058,0.267,0.256,0.481,0.518,0.559   c1.202,0.359,2.379,0.848,3.499,1.451c0.24,0.129,0.532,0.118,0.761-0.029l4.492-2.884l6.045,6.045l-2.884,4.492   c-0.147,0.231-0.158,0.523-0.027,0.764c0.596,1.096,1.083,2.272,1.45,3.497c0.079,0.262,0.292,0.46,0.56,0.518l5.209,1.132v5.865   c-1.733-0.607-4.154-1.054-6.249-1.054c-0.999,0-1.973,0.101-2.931,0.249c-0.098-8.958-7.331-15.778-15.851-15.778   c-8.756,0-15.88,7.123-15.88,15.88c0,8.381,6.642,15.734,15.84,15.848c-0.142,0.937-0.239,1.889-0.239,2.865   C27.069,48.173,27.334,50.212,27.855,51.966z M27.591,42.177c-8.527,0.028-14.624-6.709-14.624-14.353   c0-7.929,6.451-14.38,14.38-14.38c7.746,0,14.391,6.23,14.355,14.568c-6.542,1.565-11.792,6.493-13.776,12.863   C27.794,41.3,27.694,41.739,27.591,42.177z M28.57,46.533c0-1.814,0.277-3.565,0.79-5.213c2.227-7.144,8.902-12.344,16.769-12.344   c9.559,0,17.563,7.789,17.563,17.557c0,9.683-7.878,17.561-17.561,17.561C36.407,64.094,28.57,56.15,28.57,46.533z"></path>
<path d="M51.992,59.727l0.083-0.131c0.457-0.727,0.547-1.354,0.266-1.861c-0.287-0.52-0.889-0.783-1.788-0.783   c-0.683,0-1.361,0.149-1.337,0.149c0,0,0,0,0,0c-0.505,0.047-0.876-0.015-0.95-0.154c-0.233-0.445,0.388-1.889,1.098-2.917   c3.266-4.898,1.659-8.441,1.584-8.599c-1.041-2.127-2.917-3.251-5.425-3.251c-3.152,0-6.285,1.749-6.476,1.861   c-0.622,0.433-0.814,0.935-0.866,1.28c-0.082,0.549,0.131,0.987,0.264,1.197c0.159,0.371,0.57,0.75,1.581,0.75   c0.886,0,2.033-0.27,2.388-0.359c0.094,0.007,0.129,0.026,0.13,0.026c0.32,0.405-0.531,2.806-2.125,5.326   c-2.527,4.424-0.053,7.066,0.359,7.46c1.285,1.417,2.927,2.136,4.881,2.136c3.195,0,6.083-1.957,6.205-2.04L51.992,59.727z    M50.884,58.663c-0.563,0.355-2.841,1.692-5.225,1.692c-1.52,0-2.793-0.559-3.854-1.729c-0.09-0.078-2.175-1.961-0.1-5.594   c0.742-1.171,3.089-5.124,2.157-6.817c-0.167-0.303-0.585-0.81-1.542-0.81l-0.186,0.025c-0.349,0.093-1.407,0.336-2.107,0.336   c-0.138,0-0.23-0.009-0.288-0.019l-0.032-0.04c0-0.001-0.052-0.096-0.042-0.166c0.011-0.073,0.101-0.173,0.18-0.233   c0.029-0.016,2.917-1.629,5.679-1.629c1.95,0,3.284,0.788,4.073,2.4c0.013,0.029,1.32,2.917-1.472,7.106   c-0.335,0.483-1.966,2.969-1.187,4.457c0.233,0.445,0.761,0.976,1.954,0.976c0.147,0,0.305-0.008,0.569-0.039   c0.005-0.002,0.568-0.127,1.093-0.127c0.201,0,0.332,0.018,0.414,0.037C50.95,58.533,50.923,58.591,50.884,58.663z"></path>
<path d="M48.817,41.772c2.912,0,5.281-2.369,5.281-5.281c0-2.912-2.369-5.281-5.281-5.281c-2.912,0-5.281,2.369-5.281,5.281   C43.536,39.403,45.905,41.772,48.817,41.772z M48.817,32.71c2.085,0,3.781,1.696,3.781,3.781c0,2.085-1.696,3.781-3.781,3.781   c-2.085,0-3.781-1.696-3.781-3.781C45.036,34.407,46.732,32.71,48.817,32.71z"></path>
</g>
</g>
<g id="SvgjsG1092" featurekey="Qg0WB5-0" transform="matrix(3.539286097281918,0,0,3.539286097281918,-2.866821114362997,154.0366062811157)" fill="#ffffff">
<path d="M9.33 16.09 q0.14 -0.1 0.265 -0.125 t0.195 -0.025 q0.17 0 0.31 0.07 t0.29 0.3 l1.12 1.69 q0.05 0.08 0.095 0.18 t0.045 0.16 q0 0.23 -0.145 0.375 t-0.315 0.255 q-0.82 0.57 -1.795 0.915 t-2.065 0.345 q-0.9 0 -1.735 -0.23 t-1.555 -0.655 t-1.32 -1.02 t-1.02 -1.325 t-0.655 -1.575 t-0.235 -1.765 t0.235 -1.77 t0.655 -1.575 t1.02 -1.32 t1.32 -1.015 t1.555 -0.65 t1.735 -0.23 q1.09 0 2.015 0.29 t1.735 0.86 l-0.03 -0.03 q0.22 0.13 0.35 0.305 t0.13 0.435 q0 0.18 -0.12 0.37 l-0.89 1.51 q-0.28 0.49 -0.68 0.49 q-0.09 0 -0.22 -0.045 t-0.29 -0.155 q-0.44 -0.29 -0.945 -0.475 t-1.075 -0.185 q-0.63 0 -1.16 0.255 t-0.905 0.695 t-0.585 1.02 t-0.21 1.22 q0 0.66 0.21 1.235 t0.585 0.995 t0.905 0.665 t1.16 0.245 q0.57 0 1.07 -0.2 t0.95 -0.51 z M12.74 13.66 q0 -0.92 0.235 -1.77 t0.66 -1.575 t1.02 -1.32 t1.325 -1.015 t1.575 -0.65 t1.765 -0.23 q1.36 0 2.555 0.505 t2.08 1.39 t1.4 2.08 t0.515 2.585 q0 0.92 -0.235 1.765 t-0.66 1.575 t-1.02 1.325 t-1.325 1.02 t-1.565 0.655 t-1.745 0.23 q-0.92 0 -1.765 -0.23 t-1.575 -0.655 t-1.325 -1.02 t-1.02 -1.325 t-0.66 -1.575 t-0.235 -1.765 z M16.39 13.66 q0 0.66 0.205 1.235 t0.58 0.995 t0.91 0.665 t1.205 0.245 q0.65 0 1.175 -0.245 t0.89 -0.665 t0.56 -0.995 t0.195 -1.235 q0 -0.64 -0.195 -1.22 t-0.56 -1.02 t-0.89 -0.695 t-1.175 -0.255 q-0.67 0 -1.205 0.255 t-0.91 0.695 t-0.58 1.02 t-0.205 1.22 z M27.47 13.66 q0 -0.92 0.235 -1.77 t0.66 -1.575 t1.02 -1.32 t1.325 -1.015 t1.575 -0.65 t1.765 -0.23 q1.36 0 2.555 0.505 t2.08 1.39 t1.4 2.08 t0.515 2.585 q0 0.92 -0.235 1.765 t-0.66 1.575 t-1.02 1.325 t-1.325 1.02 t-1.565 0.655 t-1.745 0.23 q-0.92 0 -1.765 -0.23 t-1.575 -0.655 t-1.325 -1.02 t-1.02 -1.325 t-0.66 -1.575 t-0.235 -1.765 z M31.12 13.66 q0 0.66 0.205 1.235 t0.58 0.995 t0.91 0.665 t1.205 0.245 q0.65 0 1.175 -0.245 t0.89 -0.665 t0.56 -0.995 t0.195 -1.235 q0 -0.64 -0.195 -1.22 t-0.56 -1.02 t-0.89 -0.695 t-1.175 -0.255 q-0.67 0 -1.205 0.255 t-0.91 0.695 t-0.58 1.02 t-0.205 1.22 z M42.59 4.289999999999999 q0 -0.32 0.16 -0.54 t0.55 -0.22 l2.45 0 q0.1 0 0.21 0.055 t0.205 0.155 t0.16 0.24 t0.065 0.31 l0 14.94 q0 0.38 -0.215 0.575 t-0.555 0.195 l-2.32 0 q-0.39 0 -0.55 -0.195 t-0.16 -0.575 l0 -14.94 z M55.11000000000001 8.08 q0 -0.39 0.25 -0.585 t0.55 -0.195 l2.27 0 q0.36 0 0.56 0.23 t0.2 0.55 l0 11.48 q0 0.93 -0.39 1.75 t-1.05 1.43 t-1.515 0.96 t-1.785 0.35 l-0.24 0 q-0.36 -0.02 -0.55 -0.225 t-0.19 -0.495 l0 -1.43 q0 -0.36 0.225 -0.58 t0.545 -0.22 l0.21 0 q0.2 0 0.37 -0.165 t0.29 -0.405 t0.185 -0.505 t0.065 -0.465 l0 -11.48 z M55.06000000000001 3.0199999999999996 q0 -0.42 0.18 -0.595 t0.56 -0.175 l2.32 0 q0.35 0 0.565 0.175 t0.215 0.595 l0 1.95 q0 0.12 -0.055 0.26 t-0.155 0.27 t-0.245 0.215 t-0.325 0.085 l-2.32 0 q-0.74 0 -0.74 -0.83 l0 -1.95 z M63.24000000000001 16.05 q0.27 0.27 0.585 0.455 t0.605 0.3 t0.51 0.165 t0.3 0.05 q0.19 0 0.485 -0.015 t0.565 -0.09 t0.465 -0.245 t0.195 -0.48 q0 -0.28 -0.11 -0.445 t-0.32 -0.28 t-0.515 -0.205 t-0.685 -0.21 q-1.2 -0.32 -1.98 -0.77 t-1.235 -1.005 t-0.635 -1.195 t-0.18 -1.35 q0 -0.83 0.33 -1.51 t0.94 -1.165 t1.46 -0.75 t1.89 -0.265 q0.63 0 1.18 0.105 t1.05 0.33 t0.975 0.58 t0.945 0.845 q0.17 0.2 0.175 0.375 t-0.225 0.375 q-0.39 0.32 -0.745 0.63 t-0.735 0.69 q-0.12 0.1 -0.24 0.125 t-0.23 -0.005 t-0.21 -0.1 t-0.18 -0.17 q-0.35 -0.39 -0.8 -0.525 t-0.84 -0.135 q-0.49 0 -0.78 0.17 t-0.27 0.52 q0.02 0.26 0.195 0.405 t0.43 0.235 t0.54 0.145 t0.525 0.125 q0.9 0.29 1.65 0.63 t1.3 0.835 t0.855 1.185 t0.305 1.68 t-0.395 1.77 t-1.085 1.31 t-1.635 0.81 t-2.035 0.28 q-0.62 0 -1.26 -0.11 t-1.24 -0.355 t-1.14 -0.63 t-0.96 -0.935 q-0.11 -0.14 -0.165 -0.295 t-0.05 -0.305 t0.06 -0.275 t0.175 -0.215 l1.29 -1.29 q0.24 -0.2 0.425 -0.14 t0.475 0.34 z M72.53000000000002 13.66 q0 -0.92 0.235 -1.77 t0.66 -1.575 t1.02 -1.32 t1.325 -1.015 t1.575 -0.65 t1.765 -0.23 q1.36 0 2.555 0.505 t2.08 1.39 t1.4 2.08 t0.515 2.585 q0 0.92 -0.235 1.765 t-0.66 1.575 t-1.02 1.325 t-1.325 1.02 t-1.565 0.655 t-1.745 0.23 q-0.92 0 -1.765 -0.23 t-1.575 -0.655 t-1.325 -1.02 t-1.02 -1.325 t-0.66 -1.575 t-0.235 -1.765 z M76.18 13.66 q0 0.66 0.205 1.235 t0.58 0.995 t0.91 0.665 t1.205 0.245 q0.65 0 1.175 -0.245 t0.89 -0.665 t0.56 -0.995 t0.195 -1.235 q0 -0.64 -0.195 -1.22 t-0.56 -1.02 t-0.89 -0.695 t-1.175 -0.255 q-0.67 0 -1.205 0.255 t-0.91 0.695 t-0.58 1.02 t-0.205 1.22 z M87.91000000000001 7.470000000000001 q0.13 -0.11 0.275 -0.14 t0.275 -0.03 l1.51 0 q0.18 0 0.31 0.065 t0.22 0.175 t0.145 0.25 t0.105 0.29 l0.31 1.28 q0.15 -0.31 0.435 -0.705 t0.725 -0.74 t1.045 -0.58 t1.405 -0.235 q1.14 0 2.07 0.44 t1.585 1.2 t1.015 1.775 t0.36 2.165 l0 6.55 q0 0.38 -0.165 0.575 t-0.525 0.195 l-2.31 0 q-0.43 0 -0.59 -0.145 t-0.16 -0.565 l0 -6.51 q0 -0.43 -0.195 -0.815 t-0.515 -0.68 t-0.725 -0.465 t-0.825 -0.17 q-0.36 0 -0.735 0.16 t-0.69 0.445 t-0.53 0.67 t-0.245 0.835 l0 6.5 q0 0.17 -0.065 0.34 t-0.195 0.26 q-0.13 0.08 -0.245 0.11 t-0.265 0.03 l-2.26 0 q-0.43 0 -0.62 -0.21 t-0.19 -0.56 l0 -11.19 q0 -0.19 0.085 -0.35 t0.235 -0.25 z"></path>
</g>
</svg>